<svg width="20" height="20" viewBox="0 0 20 20" fill="none" xmlns="http://www.w3.org/2000/svg">
<path opacity="0.4" d="M13.3967 1.66675H16.2183C17.3869 1.66675 18.3338 2.62162 18.3338 3.80005V6.64552C18.3338 7.82395 17.3869 8.77882 16.2183 8.77882H13.3967C12.2281 8.77882 11.2812 7.82395 11.2812 6.64552V3.80005C11.2812 2.62162 12.2281 1.66675 13.3967 1.66675Z" fill="#28A745"/>
<path fill-rule="evenodd" clip-rule="evenodd" d="M3.78243 1.66675H6.60407C7.77262 1.66675 8.7195 2.62162 8.7195 3.80005V6.64552C8.7195 7.82395 7.77262 8.77882 6.60407 8.77882H3.78243C2.61387 8.77882 1.66699 7.82395 1.66699 6.64552V3.80005C1.66699 2.62162 2.61387 1.66675 3.78243 1.66675ZM3.78243 11.2213H6.60407C7.77262 11.2213 8.7195 12.1762 8.7195 13.3546V16.2001C8.7195 17.3777 7.77262 18.3334 6.60407 18.3334H3.78243C2.61387 18.3334 1.66699 17.3777 1.66699 16.2001V13.3546C1.66699 12.1762 2.61387 11.2213 3.78243 11.2213ZM16.2182 11.2213H13.3966C12.228 11.2213 11.2811 12.1762 11.2811 13.3546V16.2001C11.2811 17.3777 12.228 18.3334 13.3966 18.3334H16.2182C17.3868 18.3334 18.3337 17.3777 18.3337 16.2001V13.3546C18.3337 12.1762 17.3868 11.2213 16.2182 11.2213Z" fill="#28A745"/>
</svg>
