<svg width="20" height="21" viewBox="0 0 20 21" fill="none" xmlns="http://www.w3.org/2000/svg">
<path opacity="0.4" d="M13.8966 2.60645H6.11144C3.2744 2.60645 1.66699 4.21385 1.66699 7.05089V14.8287C1.66699 17.6657 3.2744 19.2731 6.11144 19.2731H13.8966C16.7337 19.2731 18.3337 17.6657 18.3337 14.8287V7.05089C18.3337 4.21385 16.7337 2.60645 13.8966 2.60645Z" fill="#28A745"/>
<path d="M6.14104 8.74707C5.76326 8.74707 5.45215 9.05818 5.45215 9.44337V15.1693C5.45215 15.5471 5.76326 15.8582 6.14104 15.8582C6.52622 15.8582 6.83733 15.5471 6.83733 15.1693V9.44337C6.83733 9.05818 6.52622 8.74707 6.14104 8.74707Z" fill="#28A745"/>
<path d="M10.0297 6.01416C9.65193 6.01416 9.34082 6.32527 9.34082 6.71046V15.1697C9.34082 15.5475 9.65193 15.8586 10.0297 15.8586C10.4149 15.8586 10.726 15.5475 10.726 15.1697V6.71046C10.726 6.32527 10.4149 6.01416 10.0297 6.01416Z" fill="#28A745"/>
<path d="M13.8672 11.7695C13.482 11.7695 13.1709 12.0806 13.1709 12.4658V15.1695C13.1709 15.5473 13.482 15.8584 13.8598 15.8584C14.245 15.8584 14.5561 15.5473 14.5561 15.1695V12.4658C14.5561 12.0806 14.245 11.7695 13.8672 11.7695Z" fill="#28A745"/>
</svg>

