<svg width="16" height="18" viewBox="0 0 16 18" fill="none" xmlns="http://www.w3.org/2000/svg">
<path d="M8.00945 11.2982C6.67239 11.2982 5.59082 10.2565 5.59082 8.94818C5.59082 7.63984 6.67239 6.58984 8.00945 6.58984C9.34651 6.58984 10.4025 7.63984 10.4025 8.94818C10.4025 10.2565 9.34651 11.2982 8.00945 11.2982Z" fill="#28A745"/>
<path opacity="0.4" d="M15.6915 10.9148C15.5296 10.6648 15.2997 10.4148 15.0016 10.2564C14.7632 10.1398 14.6099 9.94811 14.4736 9.72311C14.0393 9.00644 14.2948 8.06478 15.0187 7.63978C15.8703 7.16478 16.1428 6.10645 15.6489 5.28145L15.0783 4.29811C14.5928 3.47311 13.5283 3.18145 12.6852 3.66478C11.9358 4.06478 10.9734 3.79811 10.5391 3.08978C10.4028 2.85645 10.3262 2.60645 10.3432 2.35645C10.3688 2.03145 10.2666 1.72311 10.1133 1.47311C9.79816 0.956445 9.22757 0.606445 8.59736 0.606445H7.39656C6.77487 0.623112 6.20428 0.956445 5.88918 1.47311C5.72737 1.72311 5.63369 2.03145 5.65072 2.35645C5.66775 2.60645 5.5911 2.85645 5.45484 3.08978C5.02051 3.79811 4.05817 4.06478 3.31725 3.66478C2.46562 3.18145 1.4096 3.47311 0.91565 4.29811L0.345057 5.28145C-0.140373 6.10645 0.132149 7.16478 0.975264 7.63978C1.69915 8.06478 1.95464 9.00644 1.52882 9.72311C1.38405 9.94811 1.23075 10.1398 0.992297 10.2564C0.702742 10.4148 0.447253 10.6648 0.310992 10.9148C-0.00411185 11.4314 0.0129208 12.0814 0.328024 12.6231L0.91565 13.6231C1.23075 14.1564 1.81838 14.4898 2.43155 14.4898C2.72111 14.4898 3.06176 14.4064 3.33428 14.2398C3.54719 14.0981 3.80268 14.0481 4.08372 14.0481C4.92683 14.0481 5.63369 14.7398 5.65072 15.5648C5.65072 16.5231 6.43422 17.2731 7.42211 17.2731H8.58033C9.55971 17.2731 10.3432 16.5231 10.3432 15.5648C10.3688 14.7398 11.0756 14.0481 11.9187 14.0481C12.1912 14.0481 12.4467 14.0981 12.6682 14.2398C12.9407 14.4064 13.2728 14.4898 13.5709 14.4898C14.1755 14.4898 14.7632 14.1564 15.0783 13.6231L15.6744 12.6231C15.981 12.0648 16.0066 11.4314 15.6915 10.9148Z" fill="#28A745"/>
</svg>
