<svg width="20" height="20" viewBox="0 0 20 20" fill="none" xmlns="http://www.w3.org/2000/svg">
<path fill-rule="evenodd" clip-rule="evenodd" d="M18.2407 13.2462H14.8674C13.2865 13.2462 11.9999 11.9604 11.999 10.3804C11.999 8.79873 13.2857 7.51206 14.8674 7.51123H18.2407C18.5857 7.51123 18.8657 7.79123 18.8657 8.13623C18.8657 8.48123 18.5857 8.76123 18.2407 8.76123H14.8674C13.9749 8.76206 13.249 9.4879 13.249 10.3796C13.249 11.2704 13.9757 11.9962 14.8674 11.9962H18.2407C18.5857 11.9962 18.8657 12.2762 18.8657 12.6212C18.8657 12.9662 18.5857 13.2462 18.2407 13.2462Z" fill="white"/>
<path fill-rule="evenodd" clip-rule="evenodd" d="M15.2493 10.9529H14.9893C14.6443 10.9529 14.3643 10.6729 14.3643 10.3279C14.3643 9.98288 14.6443 9.70288 14.9893 9.70288H15.2493C15.5943 9.70288 15.8743 9.98288 15.8743 10.3279C15.8743 10.6729 15.5943 10.9529 15.2493 10.9529Z" fill="white"/>
<mask id="mask0_644_510" style="mask-type:luminance" maskUnits="userSpaceOnUse" x="1" y="2" width="18" height="17">
<path fill-rule="evenodd" clip-rule="evenodd" d="M1.66699 2.5H18.8658V18.4774H1.66699V2.5Z" fill="white"/>
</mask>
<g mask="url(#mask0_644_510)">
<path fill-rule="evenodd" clip-rule="evenodd" d="M6.66533 3.75C4.59866 3.75 2.91699 5.43167 2.91699 7.49833V13.4792C2.91699 15.5458 4.59866 17.2275 6.66533 17.2275H13.8687C15.9353 17.2275 17.6162 15.5458 17.6162 13.4792V7.49833C17.6162 5.43167 15.9353 3.75 13.8687 3.75H6.66533ZM13.8687 18.4775H6.66533C3.90949 18.4775 1.66699 16.235 1.66699 13.4792V7.49833C1.66699 4.74167 3.90949 2.5 6.66533 2.5H13.8687C16.6245 2.5 18.8662 4.74167 18.8662 7.49833V13.4792C18.8662 16.235 16.6245 18.4775 13.8687 18.4775Z" fill="white"/>
</g>
<path fill-rule="evenodd" clip-rule="evenodd" d="M10.5705 7.53174H6.07129C5.72629 7.53174 5.44629 7.25174 5.44629 6.90674C5.44629 6.56174 5.72629 6.28174 6.07129 6.28174H10.5705C10.9155 6.28174 11.1955 6.56174 11.1955 6.90674C11.1955 7.25174 10.9155 7.53174 10.5705 7.53174Z" fill="white"/>
</svg>
