<svg width="215" height="42" viewBox="0 0 215 42" fill="none" xmlns="http://www.w3.org/2000/svg">
<path d="M9.20687 4.70321C12.7772 6.93018 14.7902 7.04704 18.3537 6.36627C21.9171 5.6855 25.0059 0.961346 25.0059 2.20864C25.0059 3.45593 24.1981 8.39841 25.0059 11.3554C25.8137 14.3124 26.1832 16.0557 28.7477 17.1761M33.828 3.40569C32.7819 7.48151 33.2779 9.43603 35.002 12.628C36.7261 15.82 42.162 17.3396 40.9728 17.7159C39.7836 18.0922 34.8277 18.8132 32.2522 20.4755C29.6767 22.1377 28.1261 23.016 27.8316 25.7991M42.695 28.2354C38.4996 27.9118 36.6606 28.739 33.8159 30.9903C30.9711 33.2417 30.4168 38.8587 29.84 37.7528C29.2633 36.6468 27.6941 31.8909 25.6105 29.6426C23.527 27.3942 22.3932 26.0194 19.6012 26.2118M23.8435 41.1065C22.2008 37.2325 20.6203 35.9802 17.3126 34.4901C14.0049 32.9999 8.76259 35.0919 9.47922 34.071C10.1958 33.0501 13.6967 29.469 14.7344 26.5846C15.7722 23.7003 16.4714 22.0611 15.0161 19.6707M1.99023 27.7801C5.15958 25.0122 5.85704 23.1202 6.24242 19.5128C6.6278 15.9055 3.00662 11.5759 4.19996 11.9388C5.3933 12.3017 9.88698 14.5124 12.9511 14.5999C16.0152 14.6873 17.7906 14.8409 19.6086 12.7133" stroke="#D0D5DD" stroke-width="3.32611"/>
<path d="M59.9646 31.9524C58.5632 31.9524 57.2993 31.7084 56.1729 31.2206C55.0553 30.7328 54.1328 30.0365 53.4055 29.1318C52.6871 28.2182 52.2303 27.1362 52.0352 25.8855L55.3613 25.38C55.6451 26.5153 56.2261 27.3934 57.1042 28.0142C57.9911 28.6351 59.0111 28.9456 60.1642 28.9456C60.8471 28.9456 61.4902 28.8391 62.0933 28.6262C62.6965 28.4134 63.1843 28.1029 63.5568 27.6949C63.9382 27.2869 64.1289 26.7858 64.1289 26.1915C64.1289 25.9255 64.0846 25.6815 63.9959 25.4598C63.9072 25.2292 63.7741 25.0252 63.5967 24.8478C63.4282 24.6704 63.2065 24.5107 62.9315 24.3688C62.6654 24.2181 62.355 24.0894 62.0002 23.983L57.051 22.5195C56.6252 22.3953 56.164 22.2313 55.6673 22.0273C55.1795 21.8144 54.7138 21.5261 54.2703 21.1625C53.8357 20.7899 53.4765 20.3199 53.1927 19.7522C52.9177 19.1757 52.7802 18.4661 52.7802 17.6235C52.7802 16.3906 53.0907 15.3573 53.7115 14.5236C54.3413 13.6809 55.1839 13.0512 56.2394 12.6343C57.3037 12.2175 58.4834 12.0135 59.7784 12.0223C61.0911 12.0312 62.2618 12.2574 63.2907 12.7009C64.3196 13.1355 65.18 13.7696 65.8718 14.6034C66.5636 15.4371 67.0514 16.4438 67.3353 17.6235L63.8894 18.2222C63.7475 17.5481 63.4726 16.976 63.0645 16.5059C62.6654 16.027 62.1732 15.6633 61.5878 15.415C61.0112 15.1666 60.3948 15.0336 59.7384 15.0158C59.0998 15.007 58.5056 15.1045 57.9557 15.3085C57.4146 15.5037 56.9756 15.7875 56.6385 16.16C56.3103 16.5325 56.1462 16.9671 56.1462 17.4638C56.1462 17.9339 56.2882 18.3198 56.572 18.6213C56.8558 18.914 57.2062 19.1491 57.623 19.3265C58.0488 19.495 58.479 19.6369 58.9136 19.7522L62.3461 20.7101C62.8162 20.8343 63.3439 21.0028 63.9293 21.2157C64.5147 21.4286 65.078 21.7257 65.619 22.1071C66.16 22.4885 66.6035 22.9896 66.9494 23.6105C67.3042 24.2314 67.4816 25.0208 67.4816 25.9787C67.4816 26.9721 67.2732 27.8457 66.8563 28.5996C66.4483 29.3447 65.894 29.9656 65.1933 30.4623C64.4926 30.959 63.6899 31.3315 62.7852 31.5798C61.8893 31.8282 60.9491 31.9524 59.9646 31.9524ZM75.7497 31.9657C74.6853 31.9657 73.8072 31.7883 73.1154 31.4335C72.4236 31.0787 71.8737 30.6263 71.4657 30.0764C71.0577 29.5265 70.7561 28.9411 70.561 28.3202C70.3658 27.6994 70.2372 27.114 70.1751 26.5641C70.1219 26.0053 70.0953 25.5529 70.0953 25.207V17.1844H73.3416V24.1027C73.3416 24.5462 73.3726 25.0474 73.4347 25.6061C73.4968 26.1561 73.6387 26.6882 73.8605 27.2027C74.0911 27.7082 74.4281 28.1251 74.8716 28.4533C75.324 28.7815 75.9315 28.9456 76.6943 28.9456C77.1023 28.9456 77.5059 28.879 77.905 28.746C78.3041 28.6129 78.6634 28.3868 78.9827 28.0675C79.3108 27.7393 79.5725 27.2914 79.7676 26.7237C79.9628 26.1561 80.0603 25.4376 80.0603 24.5684L81.9629 25.38C81.9629 26.604 81.7234 27.7127 81.2444 28.7061C80.7743 29.6995 80.0781 30.4933 79.1556 31.0876C78.2332 31.673 77.0979 31.9657 75.7497 31.9657ZM80.4462 31.5532V27.0962H80.0603V17.1844H83.28V31.5532H80.4462ZM93.9229 31.9524C92.5215 31.9524 91.3463 31.6197 90.3972 30.9545C89.4482 30.2893 88.7342 29.3846 88.2552 28.2404C87.7763 27.0874 87.5368 25.7968 87.5368 24.3688C87.5368 22.9231 87.7763 21.6281 88.2552 20.4839C88.7342 19.3398 89.4349 18.4395 90.3573 17.7831C91.2886 17.1179 92.4373 16.7853 93.8032 16.7853C95.1602 16.7853 96.3354 17.1179 97.3288 17.7831C98.3311 18.4395 99.1072 19.3398 99.6571 20.4839C100.207 21.6193 100.482 22.9142 100.482 24.3688C100.482 25.8057 100.211 27.0962 99.6704 28.2404C99.1294 29.3846 98.3666 30.2893 97.3821 30.9545C96.3975 31.6197 95.2445 31.9524 93.9229 31.9524ZM86.9913 37.9393V17.1844H89.8251V27.2692H90.2243V37.9393H86.9913ZM93.4306 29.0786C94.2644 29.0786 94.9518 28.8702 95.4928 28.4533C96.0339 28.0364 96.433 27.4732 96.6902 26.7636C96.9563 26.0452 97.0894 25.2469 97.0894 24.3688C97.0894 23.4996 96.9563 22.7102 96.6902 22.0006C96.4241 21.2822 96.0117 20.7146 95.4529 20.2977C94.8941 19.8719 94.1846 19.6591 93.3242 19.6591C92.5082 19.6591 91.843 19.8586 91.3285 20.2578C90.8141 20.648 90.4327 21.1979 90.1844 21.9075C89.9449 22.6082 89.8251 23.4287 89.8251 24.3688C89.8251 25.3001 89.9449 26.1206 90.1844 26.8302C90.4327 27.5397 90.8185 28.0941 91.3419 28.4932C91.874 28.8835 92.5703 29.0786 93.4306 29.0786ZM110.32 31.9524C108.918 31.9524 107.743 31.6197 106.794 30.9545C105.845 30.2893 105.131 29.3846 104.652 28.2404C104.173 27.0874 103.933 25.7968 103.933 24.3688C103.933 22.9231 104.173 21.6281 104.652 20.4839C105.131 19.3398 105.832 18.4395 106.754 17.7831C107.685 17.1179 108.834 16.7853 110.2 16.7853C111.557 16.7853 112.732 17.1179 113.726 17.7831C114.728 18.4395 115.504 19.3398 116.054 20.4839C116.604 21.6193 116.879 22.9142 116.879 24.3688C116.879 25.8057 116.608 27.0962 116.067 28.2404C115.526 29.3846 114.763 30.2893 113.779 30.9545C112.794 31.6197 111.641 31.9524 110.32 31.9524ZM103.388 37.9393V17.1844H106.222V27.2692H106.621V37.9393H103.388ZM109.827 29.0786C110.661 29.0786 111.348 28.8702 111.889 28.4533C112.431 28.0364 112.83 27.4732 113.087 26.7636C113.353 26.0452 113.486 25.2469 113.486 24.3688C113.486 23.4996 113.353 22.7102 113.087 22.0006C112.821 21.2822 112.408 20.7146 111.85 20.2977C111.291 19.8719 110.581 19.6591 109.721 19.6591C108.905 19.6591 108.24 19.8586 107.725 20.2578C107.211 20.648 106.829 21.1979 106.581 21.9075C106.342 22.6082 106.222 23.4287 106.222 24.3688C106.222 25.3001 106.342 26.1206 106.581 26.8302C106.829 27.5397 107.215 28.0941 107.739 28.4932C108.271 28.8835 108.967 29.0786 109.827 29.0786ZM126.157 31.9524C124.721 31.9524 123.466 31.6286 122.392 30.9811C121.319 30.3337 120.485 29.4423 119.891 28.3069C119.306 27.1628 119.013 25.8501 119.013 24.3688C119.013 22.861 119.315 21.5394 119.918 20.4041C120.521 19.2688 121.359 18.3818 122.432 17.7432C123.505 17.1046 124.747 16.7853 126.157 16.7853C127.603 16.7853 128.863 17.1091 129.936 17.7565C131.009 18.404 131.843 19.2998 132.437 20.444C133.031 21.5793 133.329 22.8876 133.329 24.3688C133.329 25.8589 133.027 27.1761 132.424 28.3202C131.83 29.4556 130.996 30.347 129.923 30.9944C128.849 31.633 127.594 31.9524 126.157 31.9524ZM126.157 28.9456C127.435 28.9456 128.384 28.5198 129.005 27.6683C129.625 26.8168 129.936 25.717 129.936 24.3688C129.936 22.9763 129.621 21.8676 128.991 21.0427C128.362 20.209 127.417 19.7921 126.157 19.7921C125.297 19.7921 124.588 19.9872 124.029 20.3775C123.479 20.7589 123.071 21.2955 122.805 21.9873C122.539 22.6703 122.406 23.4641 122.406 24.3688C122.406 25.7614 122.72 26.8745 123.35 27.7082C123.989 28.5331 124.925 28.9456 126.157 28.9456ZM136.26 31.5532V17.1844H139.094V20.6835L138.748 20.2312C138.925 19.7522 139.16 19.3176 139.453 18.9273C139.754 18.5282 140.114 18.2 140.531 17.9428C140.885 17.7033 141.276 17.5171 141.701 17.384C142.136 17.2421 142.579 17.1578 143.032 17.1312C143.484 17.0957 143.923 17.1135 144.349 17.1844V20.1779C143.923 20.0538 143.431 20.0139 142.872 20.0582C142.322 20.1025 141.826 20.2578 141.382 20.5239C140.939 20.7633 140.575 21.0693 140.291 21.4419C140.016 21.8144 139.812 22.2401 139.679 22.7191C139.546 23.1892 139.48 23.6992 139.48 24.2491V31.5532H136.26ZM155.31 31.5532C154.36 31.7306 153.429 31.806 152.516 31.7794C151.611 31.7617 150.799 31.5976 150.081 31.2871C149.362 30.9678 148.817 30.4667 148.444 29.7837C148.116 29.1629 147.943 28.5287 147.926 27.8812C147.908 27.2337 147.899 26.502 147.899 25.686V13.1931H151.092V25.4997C151.092 26.0762 151.096 26.5818 151.105 27.0164C151.123 27.451 151.216 27.8058 151.385 28.0808C151.704 28.6129 152.214 28.9101 152.915 28.9722C153.615 29.0343 154.414 28.9988 155.31 28.8657V31.5532ZM145.291 19.699V17.1844H155.31V19.699H145.291ZM158.399 31.5532V12.3949H161.606V20.4573H170.679V12.3949H173.872V31.5532H170.679V23.4641H161.606V31.5532H158.399ZM177.868 15.0025V12.0622H181.075V15.0025H177.868ZM177.868 31.5532V17.1844H181.075V31.5532H177.868ZM188.945 31.5532L183.73 17.1844H186.936L190.555 27.6018L194.16 17.1844H197.38L192.165 31.5532H188.945ZM205.78 31.9524C204.326 31.9524 203.049 31.6375 201.949 31.0077C200.849 30.378 199.989 29.5043 199.368 28.3868C198.756 27.2692 198.45 25.9831 198.45 24.5285C198.45 22.9586 198.751 21.5971 199.354 20.444C199.958 19.2821 200.796 18.3818 201.869 17.7432C202.942 17.1046 204.184 16.7853 205.594 16.7853C207.084 16.7853 208.348 17.1357 209.386 17.8364C210.433 18.5282 211.209 19.5083 211.714 20.7766C212.22 22.045 212.411 23.5395 212.286 25.2602H209.107V24.0894C209.098 22.5284 208.823 21.3886 208.282 20.6702C207.741 19.9518 206.889 19.5925 205.727 19.5925C204.415 19.5925 203.439 20.0005 202.8 20.8166C202.162 21.6237 201.842 22.8078 201.842 24.3688C201.842 25.8235 202.162 26.9499 202.8 27.7482C203.439 28.5464 204.37 28.9456 205.594 28.9456C206.384 28.9456 207.062 28.7726 207.63 28.4267C208.206 28.0719 208.65 27.5619 208.96 26.8967L212.127 27.8546C211.577 29.1496 210.725 30.1563 209.572 30.8747C208.428 31.5931 207.164 31.9524 205.78 31.9524ZM200.831 25.2602V22.8388H210.716V25.2602H200.831Z" fill="#D0D5DD"/>
</svg>
