<svg width="153" height="29" viewBox="0 0 153 29" fill="none" xmlns="http://www.w3.org/2000/svg">
<path d="M5.78688 3.79308C8.15511 5.27025 9.4904 5.34776 11.8541 4.8962C14.2177 4.44464 16.2665 1.31105 16.2665 2.13839C16.2665 2.96573 15.7307 6.24415 16.2665 8.20557C16.8024 10.167 17.0475 11.3233 18.7486 12.0665M22.1184 2.93241C21.4245 5.63595 21.7535 6.93241 22.8971 9.0497C24.0407 11.167 27.6464 12.175 26.8576 12.4246C26.0688 12.6742 22.7815 13.1524 21.0731 14.255C19.3648 15.3576 18.3363 15.9402 18.1409 17.7862M28 19.4023C25.2171 19.1876 23.9973 19.7363 22.1103 21.2296C20.2233 22.723 19.8557 26.4488 19.4731 25.7152C19.0905 24.9817 18.0497 21.827 16.6676 20.3357C15.2856 18.8443 14.5336 17.9323 12.6816 18.06M15.4956 27.9398C14.4059 25.3701 13.3576 24.5395 11.1635 23.5511C8.96949 22.5626 5.49219 23.9503 5.96753 23.2731C6.44288 22.5959 8.76503 20.2205 9.45339 18.3073C10.1418 16.394 10.6055 15.3068 9.64019 13.7212M1 19.1003C3.10226 17.2642 3.5649 16.0093 3.82053 13.6165C4.07616 11.2237 1.67418 8.35182 2.46574 8.59252C3.25729 8.83322 6.23801 10.2997 8.27048 10.3576C10.3029 10.4156 11.4806 10.5175 12.6865 9.10624" stroke="white" stroke-width="2.84211"/>
<path d="M40.42 21.17C36.58 21.17 34.66 19.37 34.66 16.57V16.31H38.36V16.47C38.36 17.57 38.76 17.79 40.56 17.79C41.98 17.79 42.28 17.57 42.28 16.99C42.28 16.37 42.08 16.17 41.16 16.03L38.24 15.57C35.52 15.15 34.4 13.71 34.4 11.63C34.4 9.24997 36.22 7.36997 40.16 7.36997C43.9 7.36997 45.68 9.24997 45.68 11.75V12.09H41.98V11.85C41.98 11.07 41.6 10.75 39.92 10.75C38.5 10.75 38.14 10.99 38.14 11.49C38.14 11.91 38.4 12.09 39.18 12.23L42.1 12.75C44.94 13.25 46.04 14.73 46.04 16.81C46.04 19.15 44.44 21.17 40.42 21.17ZM50.6214 21.17C47.9614 21.17 46.9614 19.39 46.9614 17.27V10.69H50.7214V16.49C50.7214 17.59 50.9814 17.95 52.3014 17.95C53.5414 17.95 53.9214 17.65 53.9214 16.55V10.69H57.6614V20.97H54.1614V19.41H53.9814C53.4214 20.57 52.1414 21.17 50.6214 21.17ZM62.5978 24.17H58.8578V10.69H62.3578V12.09H62.4778C63.0378 11.13 64.1178 10.49 65.6578 10.49C68.5778 10.49 69.8378 12.59 69.8378 15.83C69.8378 19.07 68.6178 21.17 65.6978 21.17C64.2178 21.17 63.2178 20.55 62.7778 19.61H62.5978V24.17ZM62.5978 16.21C62.5978 17.61 63.1578 17.91 64.3378 17.91C65.9178 17.91 66.0978 17.21 66.0978 15.83C66.0978 14.45 65.8978 13.77 64.3378 13.77C63.1578 13.77 62.5978 14.05 62.5978 15.47V16.21ZM74.4142 24.17H70.6742V10.69H74.1742V12.09H74.2942C74.8542 11.13 75.9342 10.49 77.4742 10.49C80.3942 10.49 81.6542 12.59 81.6542 15.83C81.6542 19.07 80.4342 21.17 77.5142 21.17C76.0342 21.17 75.0342 20.55 74.5942 19.61H74.4142V24.17ZM74.4142 16.21C74.4142 17.61 74.9742 17.91 76.1542 17.91C77.7342 17.91 77.9142 17.21 77.9142 15.83C77.9142 14.45 77.7142 13.77 76.1542 13.77C74.9742 13.77 74.4142 14.05 74.4142 15.47V16.21ZM87.8069 21.17C84.4069 21.17 82.4469 19.15 82.4469 15.83C82.4469 12.49 84.4069 10.49 87.8069 10.49C91.2069 10.49 93.1669 12.49 93.1669 15.83C93.1669 19.15 91.2069 21.17 87.8069 21.17ZM87.8069 17.91C89.0669 17.91 89.4269 17.47 89.4269 15.83C89.4269 14.19 89.0669 13.75 87.8069 13.75C86.5469 13.75 86.1869 14.19 86.1869 15.83C86.1869 17.47 86.5469 17.91 87.8069 17.91ZM97.7541 20.97H94.0141V10.69H97.5141V12.25H97.6941C98.2741 11.25 99.2541 10.49 100.614 10.49C102.594 10.49 103.294 11.77 103.294 13.79V15.65H99.5341V14.63C99.5341 13.87 99.3941 13.65 98.6941 13.65C98.0741 13.65 97.7541 13.73 97.7541 14.47V20.97ZM108.991 21.17C106.211 21.17 104.911 20.05 104.911 17.57V13.77H103.551V10.69H105.031L105.691 8.56997H108.671V10.69H111.391V13.77H108.671V17.01C108.671 17.63 108.891 17.79 109.751 17.79H111.391V20.93C110.871 21.05 109.931 21.17 108.991 21.17ZM116.253 20.97H112.493V7.56997H116.253V12.55H121.273V7.56997H125.033V20.97H121.273V15.93H116.253V20.97ZM130.078 9.76997H126.338V7.56997H130.078V9.76997ZM130.098 20.97H126.338V10.69H130.098V20.97ZM138.788 20.97H133.988L130.148 10.69H134.348L136.308 17.23H136.568L138.528 10.69H142.648L138.788 20.97ZM147.472 21.17C144.132 21.17 142.252 19.21 142.252 15.93C142.252 12.53 144.172 10.49 147.592 10.49C150.912 10.49 152.572 12.43 152.572 15.17C152.572 15.73 152.472 16.35 152.412 16.69H145.752C145.812 17.79 146.152 18.05 147.532 18.05C148.432 18.05 148.732 17.87 148.732 17.41V17.37H152.452V17.61C152.452 19.69 150.532 21.17 147.472 21.17ZM147.392 13.45C146.232 13.45 145.812 13.81 145.752 14.65H148.992C148.972 13.99 148.632 13.45 147.392 13.45Z" fill="white"/>
</svg>
