<svg width="177" height="32" viewBox="0 0 177 32" fill="none" xmlns="http://www.w3.org/2000/svg">
<path d="M5.78688 4.82335C8.15511 6.30052 9.4904 6.37803 11.8541 5.92647C14.2177 5.47491 16.2665 2.34132 16.2665 3.16866C16.2665 3.99601 15.7307 7.27442 16.2665 9.23584C16.8024 11.1973 17.0475 12.3536 18.7486 13.0968M22.1184 3.96269C21.4245 6.66623 21.7535 7.96268 22.8971 10.08C24.0407 12.1973 27.6464 13.2052 26.8576 13.4548C26.0688 13.7044 22.7815 14.1827 21.0731 15.2853C19.3648 16.3879 18.3363 16.9704 18.1409 18.8165M28 20.4326C25.2171 20.2179 23.9973 20.7666 22.1103 22.2599C20.2233 23.7533 19.8557 27.4791 19.4731 26.7455C19.0905 26.0119 18.0497 22.8573 16.6676 21.3659C15.2856 19.8746 14.5336 18.9626 12.6816 19.0902M15.4956 28.9701C14.4059 26.4004 13.3576 25.5698 11.1635 24.5814C8.96949 23.5929 5.49219 24.9805 5.96753 24.3034C6.44288 23.6262 8.76503 21.2508 9.45339 19.3375C10.1418 17.4243 10.6055 16.3371 9.64019 14.7514M1 20.1306C3.10226 18.2945 3.5649 17.0395 3.82053 14.6468C4.07616 12.254 1.67418 9.3821 2.46574 9.6228C3.25729 9.86349 6.23801 11.3299 8.27048 11.3879C10.3029 11.4459 11.4806 11.5478 12.6865 10.1365" stroke="#208637" stroke-width="2.84211"/>
<path d="M41.704 24.24C37.096 24.24 34.792 22.08 34.792 18.72V18.408H39.232V18.6C39.232 19.92 39.712 20.184 41.872 20.184C43.576 20.184 43.936 19.92 43.936 19.224C43.936 18.48 43.696 18.24 42.592 18.072L39.088 17.52C35.824 17.016 34.48 15.288 34.48 12.792C34.48 9.936 36.664 7.68 41.392 7.68C45.88 7.68 48.016 9.936 48.016 12.936V13.344H43.576V13.056C43.576 12.12 43.12 11.736 41.104 11.736C39.4 11.736 38.968 12.024 38.968 12.624C38.968 13.128 39.28 13.344 40.216 13.512L43.72 14.136C47.128 14.736 48.448 16.512 48.448 19.008C48.448 21.816 46.528 24.24 41.704 24.24ZM53.9457 24.24C50.7537 24.24 49.5537 22.104 49.5537 19.56V11.664H54.0657V18.624C54.0657 19.944 54.3777 20.376 55.9617 20.376C57.4497 20.376 57.9057 20.016 57.9057 18.696V11.664H62.3937V24H58.1937V22.128H57.9777C57.3057 23.52 55.7697 24.24 53.9457 24.24ZM68.3174 27.84H63.8294V11.664H68.0294V13.344H68.1734C68.8454 12.192 70.1414 11.424 71.9894 11.424C75.4934 11.424 77.0054 13.944 77.0054 17.832C77.0054 21.72 75.5414 24.24 72.0374 24.24C70.2614 24.24 69.0614 23.496 68.5334 22.368H68.3174V27.84ZM68.3174 18.288C68.3174 19.968 68.9894 20.328 70.4054 20.328C72.3014 20.328 72.5174 19.488 72.5174 17.832C72.5174 16.176 72.2774 15.36 70.4054 15.36C68.9894 15.36 68.3174 15.696 68.3174 17.4V18.288ZM82.4971 27.84H78.0091V11.664H82.2091V13.344H82.3531C83.0251 12.192 84.3211 11.424 86.1691 11.424C89.6731 11.424 91.1851 13.944 91.1851 17.832C91.1851 21.72 89.7211 24.24 86.2171 24.24C84.4411 24.24 83.2411 23.496 82.7131 22.368H82.4971V27.84ZM82.4971 18.288C82.4971 19.968 83.1691 20.328 84.5851 20.328C86.4811 20.328 86.6971 19.488 86.6971 17.832C86.6971 16.176 86.4571 15.36 84.5851 15.36C83.1691 15.36 82.4971 15.696 82.4971 17.4V18.288ZM98.5683 24.24C94.4883 24.24 92.1363 21.816 92.1363 17.832C92.1363 13.824 94.4883 11.424 98.5683 11.424C102.648 11.424 105 13.824 105 17.832C105 21.816 102.648 24.24 98.5683 24.24ZM98.5683 20.328C100.08 20.328 100.512 19.8 100.512 17.832C100.512 15.864 100.08 15.336 98.5683 15.336C97.0563 15.336 96.6243 15.864 96.6243 17.832C96.6243 19.8 97.0563 20.328 98.5683 20.328ZM110.505 24H106.017V11.664H110.217V13.536H110.433C111.129 12.336 112.305 11.424 113.937 11.424C116.313 11.424 117.153 12.96 117.153 15.384V17.616H112.641V16.392C112.641 15.48 112.473 15.216 111.633 15.216C110.889 15.216 110.505 15.312 110.505 16.2V24ZM123.989 24.24C120.653 24.24 119.093 22.896 119.093 19.92V15.36H117.461V11.664H119.237L120.029 9.12H123.605V11.664H126.869V15.36H123.605V19.248C123.605 19.992 123.869 20.184 124.901 20.184H126.869V23.952C126.245 24.096 125.117 24.24 123.989 24.24ZM132.704 24H128.192V7.92H132.704V13.896H138.728V7.92H143.24V24H138.728V17.952H132.704V24ZM149.294 10.56H144.806V7.92H149.294V10.56ZM149.318 24H144.806V11.664H149.318V24ZM159.745 24H153.985L149.377 11.664H154.417L156.769 19.512H157.081L159.433 11.664H164.377L159.745 24ZM170.166 24.24C166.158 24.24 163.902 21.888 163.902 17.952C163.902 13.872 166.206 11.424 170.31 11.424C174.294 11.424 176.286 13.752 176.286 17.04C176.286 17.712 176.166 18.456 176.094 18.864H168.102C168.174 20.184 168.582 20.496 170.238 20.496C171.318 20.496 171.678 20.28 171.678 19.728V19.68H176.142V19.968C176.142 22.464 173.838 24.24 170.166 24.24ZM170.07 14.976C168.678 14.976 168.174 15.408 168.102 16.416H171.99C171.966 15.624 171.558 14.976 170.07 14.976Z" fill="#208637"/>
</svg>
