<svg width="29" height="29" viewBox="0 0 29 29" fill="none" xmlns="http://www.w3.org/2000/svg">
<path d="M5.78688 3.79308C8.15511 5.27025 9.4904 5.34776 11.8541 4.8962C14.2177 4.44464 16.2665 1.31105 16.2665 2.13839C16.2665 2.96573 15.7307 6.24415 16.2665 8.20557C16.8024 10.167 17.0475 11.3233 18.7486 12.0665M22.1184 2.93241C21.4245 5.63595 21.7535 6.93241 22.8971 9.0497C24.0407 11.167 27.6464 12.175 26.8576 12.4246C26.0688 12.6742 22.7815 13.1524 21.0731 14.255C19.3648 15.3576 18.3363 15.9402 18.1409 17.7862M28 19.4023C25.2171 19.1876 23.9973 19.7363 22.1103 21.2296C20.2233 22.723 19.8557 26.4488 19.4731 25.7152C19.0905 24.9817 18.0497 21.827 16.6676 20.3357C15.2856 18.8443 14.5336 17.9323 12.6816 18.06M15.4956 27.9398C14.4059 25.3701 13.3576 24.5395 11.1635 23.5511C8.96949 22.5626 5.49219 23.9503 5.96753 23.2731C6.44288 22.5959 8.76503 20.2205 9.45339 18.3073C10.1418 16.394 10.6055 15.3068 9.64019 13.7212M1 19.1003C3.10226 17.2642 3.5649 16.0093 3.82053 13.6165C4.07616 11.2237 1.67418 8.35182 2.46574 8.59252C3.25729 8.83322 6.23801 10.2997 8.27048 10.3576C10.3029 10.4156 11.4806 10.5175 12.6865 9.10624" stroke="#208637" stroke-width="2.84211"/>
</svg>
