<svg width="25" height="24" viewBox="0 0 25 24" fill="none" xmlns="http://www.w3.org/2000/svg">
<path fill-rule="evenodd" clip-rule="evenodd" d="M12.7466 22.0001C11.3916 22.0001 10.0706 21.9852 8.7636 21.9581C7.0916 21.9251 5.9346 20.8411 5.7456 19.1291C5.4306 16.2891 4.8916 9.59515 4.8866 9.52815C4.8526 9.11515 5.1606 8.75315 5.5736 8.72015C5.9806 8.70915 6.3486 8.99515 6.3816 9.40715C6.3866 9.47515 6.9246 16.1461 7.2366 18.9641C7.3436 19.9371 7.8686 20.4391 8.7946 20.4581C11.2946 20.5112 13.8456 20.5141 16.5956 20.4641C17.5796 20.4451 18.1116 19.9531 18.2216 18.9571C18.5316 16.1631 19.0716 9.47515 19.0776 9.40715C19.1106 8.99515 19.4756 8.70715 19.8846 8.72015C20.2976 8.75415 20.6056 9.11515 20.5726 9.52815C20.5666 9.59615 20.0246 16.3071 19.7126 19.1221C19.5186 20.8691 18.3646 21.9321 16.6226 21.9641C15.2896 21.9871 14.0036 22.0001 12.7466 22.0001Z" fill="#CA200D"/>
<path fill-rule="evenodd" clip-rule="evenodd" d="M21.208 6.98926H4.25C3.836 6.98926 3.5 6.65326 3.5 6.23926C3.5 5.82526 3.836 5.48926 4.25 5.48926H21.208C21.622 5.48926 21.958 5.82526 21.958 6.23926C21.958 6.65326 21.622 6.98926 21.208 6.98926Z" fill="#CA200D"/>
<path fill-rule="evenodd" clip-rule="evenodd" d="M17.9404 6.98949C16.8024 6.98949 15.8144 6.17849 15.5904 5.06249L15.3474 3.84649C15.2964 3.66149 15.0854 3.50049 14.8454 3.50049H10.6124C10.3724 3.50049 10.1614 3.66149 10.1004 3.89249L9.86739 5.06249C9.64439 6.17849 8.6554 6.98949 7.5174 6.98949C7.1034 6.98949 6.7674 6.65349 6.7674 6.23949C6.7674 5.82549 7.1034 5.48949 7.5174 5.48949C7.9434 5.48949 8.3134 5.18549 8.3974 4.76749L8.6404 3.55149C8.8874 2.61949 9.6944 2.00049 10.6124 2.00049H14.8454C15.7634 2.00049 16.5704 2.61949 16.8074 3.50649L17.0614 4.76749C17.1444 5.18549 17.5144 5.48949 17.9404 5.48949C18.3544 5.48949 18.6904 5.82549 18.6904 6.23949C18.6904 6.65349 18.3544 6.98949 17.9404 6.98949Z" fill="#CA200D"/>
</svg>
