<svg width="28" height="20" viewBox="0 0 28 20" fill="none" xmlns="http://www.w3.org/2000/svg">
<path fill-rule="evenodd" clip-rule="evenodd" d="M26 0H2C0.895431 0 0 0.895431 0 2V18C0 19.1046 0.895431 20 2 20H26C27.1046 20 28 19.1046 28 18V2C28 0.895431 27.1046 0 26 0ZM26 2V5H2V2H26ZM26 18H2V7H26V18ZM24 15C24 15.5523 23.5523 16 23 16H19C18.4477 16 18 15.5523 18 15C18 14.4477 18.4477 14 19 14H23C23.5523 14 24 14.4477 24 15ZM16 15C16 15.5523 15.5523 16 15 16H13C12.4477 16 12 15.5523 12 15C12 14.4477 12.4477 14 13 14H15C15.5523 14 16 14.4477 16 15Z" fill="#0D141C"/>
</svg>
