<svg width="16" height="16" viewBox="0 0 16 16" fill="none" xmlns="http://www.w3.org/2000/svg">
<path fill-rule="evenodd" clip-rule="evenodd" d="M8.16703 5.66699C7.5237 5.66699 7.00037 6.19033 7.00037 6.83433C7.00037 7.47766 7.5237 8.00033 8.16703 8.00033C8.81037 8.00033 9.3337 7.47766 9.3337 6.83433C9.3337 6.19033 8.81037 5.66699 8.16703 5.66699M8.16703 9.00033C6.97237 9.00033 6.00037 8.02899 6.00037 6.83433C6.00037 5.63899 6.97237 4.66699 8.16703 4.66699C9.3617 4.66699 10.3337 5.63899 10.3337 6.83433C10.3337 8.02899 9.3617 9.00033 8.16703 9.00033" fill="#130F26"/>
<mask id="mask0_721_976" style="mask-type:luminance" maskUnits="userSpaceOnUse" x="2" y="1" width="12" height="14">
<path fill-rule="evenodd" clip-rule="evenodd" d="M2.66669 1.3335H13.6664V14.3335H2.66669V1.3335Z" fill="white"/>
</mask>
<g mask="url(#mask0_721_976)">
<path fill-rule="evenodd" clip-rule="evenodd" d="M8.16638 2.3335C5.68505 2.3335 3.66638 4.3715 3.66638 6.8755C3.66638 10.0615 7.41572 13.1655 8.16638 13.3308C8.91705 13.1648 12.6664 10.0608 12.6664 6.8755C12.6664 4.3715 10.6477 2.3335 8.16638 2.3335V2.3335ZM8.16638 14.3335C6.97038 14.3335 2.66638 10.6322 2.66638 6.8755C2.66638 3.8195 5.13372 1.3335 8.16638 1.3335C11.199 1.3335 13.6664 3.8195 13.6664 6.8755C13.6664 10.6322 9.36238 14.3335 8.16638 14.3335V14.3335Z" fill="#130F26"/>
</g>
</svg>
