<svg width="35" height="38" viewBox="0 0 35 38" fill="none" xmlns="http://www.w3.org/2000/svg">
<path fill-rule="evenodd" clip-rule="evenodd" d="M20.8462 19.0002C20.8462 20.0199 20.0197 20.8465 19.0001 20.8465C17.9805 20.8465 17.154 20.0199 17.154 19.0002C17.154 17.9805 17.9805 17.1539 19.0001 17.1539C20.0197 17.1539 20.8462 17.9805 20.8462 19.0002ZM12.2309 17.1539C11.2113 17.1539 10.3848 17.9805 10.3848 19.0002C10.3848 20.0199 11.2113 20.8465 12.2309 20.8465C13.2505 20.8465 14.0771 20.0199 14.0771 19.0002C14.0771 17.9805 13.2505 17.1539 12.2309 17.1539ZM25.7693 17.1539C24.7497 17.1539 23.9231 17.9805 23.9231 19.0002C23.9231 20.0199 24.7497 20.8465 25.7693 20.8465C26.7889 20.8465 27.6154 20.0199 27.6154 19.0002C27.6154 17.9805 26.7889 17.1539 25.7693 17.1539ZM35 19.0002C35.0012 24.6196 32.0549 29.8277 27.2381 32.721C22.4212 35.6142 16.4398 35.7685 11.4802 33.1274L6.24173 34.8737C5.35714 35.1687 4.38181 34.9385 3.72244 34.2791C3.06308 33.6197 2.8329 32.6443 3.12791 31.7596L4.87405 26.5208C1.74769 20.6424 2.5879 13.4422 6.98372 8.44169C11.3795 3.44122 18.4122 1.6856 24.6422 4.03348C30.8722 6.38137 34.9973 12.342 35 19.0002ZM32.5385 19.0002C32.5369 13.308 28.9754 8.22457 23.6261 6.27954C18.2769 4.3345 12.2825 5.94323 8.62562 10.3052C4.96876 14.6672 4.43048 20.8508 7.27865 25.7792C7.45508 26.0845 7.49205 26.4509 7.38018 26.7854L5.46174 32.5397L11.2155 30.6211C11.3409 30.5783 11.4724 30.5565 11.6048 30.5564C11.8209 30.5568 12.0332 30.6141 12.2202 30.7226C16.4091 33.1464 21.5732 33.1497 25.7653 30.7312C29.9573 28.3126 32.5396 23.8402 32.5385 19.0002Z" fill="#0D141C"/>
</svg>
