<svg width="32" height="32" viewBox="0 0 32 32" fill="none" xmlns="http://www.w3.org/2000/svg">
<path fill-rule="evenodd" clip-rule="evenodd" d="M14.6558 19.7401C17.4077 17.9081 18.6354 14.4903 17.6785 11.326C16.7215 8.16164 13.8055 5.99707 10.4996 5.99707C7.19368 5.99707 4.27767 8.16164 3.32069 11.326C2.36371 14.4903 3.59148 17.9081 6.34333 19.7401C3.91894 20.6337 1.84846 22.2872 0.440826 24.4539C0.239485 24.7531 0.214888 25.1376 0.376456 25.4601C0.538024 25.7825 0.860719 25.993 1.22095 26.0109C1.58118 26.0287 1.92313 25.8512 2.11583 25.5464C3.96059 22.709 7.11527 20.9973 10.4996 20.9973C13.8839 20.9973 17.0386 22.709 18.8833 25.5464C19.1885 26 19.8014 26.1244 20.2593 25.8257C20.7172 25.527 20.8504 24.916 20.5583 24.4539C19.1507 22.2872 17.0802 20.6337 14.6558 19.7401ZM4.99958 13.5001C4.99958 10.4625 7.46201 8.00011 10.4996 8.00011C13.5371 8.00011 15.9996 10.4625 15.9996 13.5001C15.9996 16.5377 13.5371 19.0001 10.4996 19.0001C7.46344 18.9967 5.00302 16.5363 4.99958 13.5001ZM31.2671 25.8376C30.8045 26.1392 30.185 26.0089 29.8833 25.5464C28.0406 22.7072 24.8843 20.9956 21.4996 21.0001C20.9473 21.0001 20.4996 20.5524 20.4996 20.0001C20.4996 19.4478 20.9473 19.0001 21.4996 19.0001C23.7147 18.998 25.7123 17.6673 26.5677 15.6241C27.4231 13.5808 26.9693 11.2238 25.4164 9.64427C23.8635 8.06469 21.5146 7.57085 19.4571 8.39136C19.1231 8.53573 18.7371 8.48733 18.4491 8.26497C18.1611 8.04262 18.0167 7.6814 18.0718 7.32178C18.127 6.96216 18.3732 6.66089 18.7146 6.53511C22.2808 5.11287 26.3452 6.61346 28.1316 10.0119C29.918 13.4103 28.8494 17.6091 25.6558 19.7401C28.0802 20.6337 30.1507 22.2872 31.5583 24.4539C31.86 24.9164 31.7296 25.5359 31.2671 25.8376Z" fill="#0D141C"/>
</svg>
