<svg width="16" height="16" viewBox="0 0 16 16" fill="none" xmlns="http://www.w3.org/2000/svg">
<mask id="mask0_721_1050" style="mask-type:luminance" maskUnits="userSpaceOnUse" x="2" y="9" width="12" height="6">
<path fill-rule="evenodd" clip-rule="evenodd" d="M2.66669 9.66406H13.2266V14.5801H2.66669V9.66406Z" fill="white"/>
</mask>
<g mask="url(#mask0_721_1050)">
<path fill-rule="evenodd" clip-rule="evenodd" d="M7.94729 10.6641C5.10663 10.6641 3.66663 11.1521 3.66663 12.1154C3.66663 13.0874 5.10663 13.5801 7.94729 13.5801C10.7873 13.5801 12.2266 13.0921 12.2266 12.1287C12.2266 11.1567 10.7873 10.6641 7.94729 10.6641M7.94729 14.5801C6.64129 14.5801 2.66663 14.5801 2.66663 12.1154C2.66663 9.91806 5.68063 9.66406 7.94729 9.66406C9.25329 9.66406 13.2266 9.66406 13.2266 12.1287C13.2266 14.3261 10.2133 14.5801 7.94729 14.5801" fill="#130F26"/>
</g>
<mask id="mask1_721_1050" style="mask-type:luminance" maskUnits="userSpaceOnUse" x="4" y="1" width="8" height="8">
<path fill-rule="evenodd" clip-rule="evenodd" d="M4.40662 1.3335H11.4866V8.41256H4.40662V1.3335Z" fill="white"/>
</mask>
<g mask="url(#mask1_721_1050)">
<path fill-rule="evenodd" clip-rule="evenodd" d="M7.9473 2.28501C6.51997 2.28501 5.35864 3.44567 5.35864 4.87301C5.35397 6.29567 6.50664 7.45567 7.92797 7.46101L7.9473 7.93701V7.46101C9.37397 7.46101 10.5346 6.29967 10.5346 4.87301C10.5346 3.44567 9.37397 2.28501 7.9473 2.28501M7.9473 8.41234H7.92597C5.97797 8.40634 4.39997 6.81767 4.40664 4.87101C4.40664 2.92101 5.99464 1.33301 7.9473 1.33301C9.8993 1.33301 11.4866 2.92101 11.4866 4.87301C11.4866 6.82501 9.8993 8.41234 7.9473 8.41234" fill="#130F26"/>
</g>
</svg>
