<svg width="16" height="17" viewBox="0 0 16 17" fill="none" xmlns="http://www.w3.org/2000/svg">
<path d="M4.66665 12.5V5.20133C4.6666 5.04622 4.71808 4.89548 4.81299 4.77279C4.90791 4.6501 5.04089 4.56242 5.19104 4.5235C5.3412 4.48459 5.50003 4.49666 5.64259 4.5578C5.78514 4.61895 5.90335 4.72572 5.97865 4.86133L10.0213 12.1387C10.0966 12.2743 10.2148 12.381 10.3574 12.4422C10.4999 12.5033 10.6588 12.5154 10.8089 12.4765C10.9591 12.4376 11.0921 12.3499 11.187 12.2272C11.2819 12.1045 11.3334 11.9538 11.3333 11.7987V4.5M3.33331 7.16667H12.6666M3.33331 9.83333H12.6666" stroke="black" stroke-width="2" stroke-linecap="round" stroke-linejoin="round"/>
</svg>
