<svg width="16" height="16" viewBox="0 0 16 16" fill="none" xmlns="http://www.w3.org/2000/svg">
<path fill-rule="evenodd" clip-rule="evenodd" d="M7.99998 2.3335C4.87531 2.3335 2.33331 4.8755 2.33331 8.00016C2.33331 11.1248 4.87531 13.6668 7.99998 13.6668C11.1246 13.6668 13.6666 11.1248 13.6666 8.00016C13.6666 4.8755 11.1246 2.3335 7.99998 2.3335M7.99998 14.6668C4.32398 14.6668 1.33331 11.6762 1.33331 8.00016C1.33331 4.32416 4.32398 1.3335 7.99998 1.3335C11.676 1.3335 14.6666 4.32416 14.6666 8.00016C14.6666 11.6762 11.676 14.6668 7.99998 14.6668" fill="#130F26"/>
<path fill-rule="evenodd" clip-rule="evenodd" d="M10.2874 10.4618C10.2001 10.4618 10.1121 10.4391 10.0314 10.3918L7.51811 8.89247C7.36744 8.8018 7.27411 8.63847 7.27411 8.46247V5.23047C7.27411 4.95447 7.49811 4.73047 7.77411 4.73047C8.05078 4.73047 8.27411 4.95447 8.27411 5.23047V8.17847L10.5441 9.5318C10.7808 9.6738 10.8588 9.98047 10.7174 10.2178C10.6234 10.3745 10.4574 10.4618 10.2874 10.4618" fill="#130F26"/>
</svg>
